<?xml version="1.0" encoding="UTF-8"?>
<svg id="Capa_1" xmlns="http://www.w3.org/2000/svg" version="1.1" xmlns:xlink="http://www.w3.org/1999/xlink" viewBox="0 0 1080 440">
  <!-- Generator: Adobe Illustrator 29.6.1, SVG Export Plug-In . SVG Version: 2.1.1 Build 9)  -->
  <defs>
    <style>
      .st0 {
        fill: url(#Degradado_sin_nombre_44);
      }

      .st1 {
        fill: url(#Degradado_sin_nombre_48);
      }

      .st2 {
        fill: url(#Degradado_sin_nombre_43);
      }

      .st3 {
        fill: url(#Degradado_sin_nombre_4);
      }

      .st4 {
        fill: url(#Degradado_sin_nombre_45);
      }

      .st5 {
        fill: url(#Degradado_sin_nombre_46);
      }

      .st6 {
        fill: url(#Degradado_sin_nombre_41);
      }

      .st7 {
        fill: #ff6b00;
      }

      .st8 {
        fill: url(#Degradado_sin_nombre_47);
      }

      .st9 {
        fill: url(#Degradado_sin_nombre_42);
      }
    </style>
    <linearGradient id="Degradado_sin_nombre_4" data-name="Degradado sin nombre 4" x1="201.85" y1="396.29" x2="203.19" y2="312.74" gradientUnits="userSpaceOnUse">
      <stop offset="0" stop-color="#fff"/>
      <stop offset="1" stop-color="#ff6b00"/>
    </linearGradient>
    <linearGradient id="Degradado_sin_nombre_41" data-name="Degradado sin nombre 4" x1="425.5" y1="304.96" x2="421.26" y2="186.49" xlink:href="#Degradado_sin_nombre_4"/>
    <linearGradient id="Degradado_sin_nombre_42" data-name="Degradado sin nombre 4" x1="746.26" y1="293.5" x2="742.03" y2="175.03" xlink:href="#Degradado_sin_nombre_4"/>
    <linearGradient id="Degradado_sin_nombre_43" data-name="Degradado sin nombre 4" x1="507.65" y1="302.02" x2="503.42" y2="183.55" xlink:href="#Degradado_sin_nombre_4"/>
    <linearGradient id="Degradado_sin_nombre_44" data-name="Degradado sin nombre 4" x1="832.75" y1="290.41" x2="828.52" y2="171.94" xlink:href="#Degradado_sin_nombre_4"/>
    <linearGradient id="Degradado_sin_nombre_45" data-name="Degradado sin nombre 4" x1="911.52" y1="287.6" x2="907.29" y2="169.13" xlink:href="#Degradado_sin_nombre_4"/>
    <linearGradient id="Degradado_sin_nombre_46" data-name="Degradado sin nombre 4" x1="650.49" y1="296.92" x2="646.26" y2="178.45" xlink:href="#Degradado_sin_nombre_4"/>
    <linearGradient id="Degradado_sin_nombre_47" data-name="Degradado sin nombre 4" x1="981.11" y1="285.11" x2="976.88" y2="166.64" xlink:href="#Degradado_sin_nombre_4"/>
    <linearGradient id="Degradado_sin_nombre_48" data-name="Degradado sin nombre 4" x1="572.18" y1="299.72" x2="567.95" y2="181.25" xlink:href="#Degradado_sin_nombre_4"/>
  </defs>
  <g>
    <path class="st7" d="M1386.24,130.16c-.67-.8-1.53-1.21-2.53-1.21s-1.85.41-2.54,1.21c-.68.79-1.03,1.79-1.03,2.95,0,1.23.36,2.25,1.07,3.03.71.79,1.54,1.19,2.46,1.19,1.01,0,1.87-.4,2.56-1.21.69-.81,1.04-1.81,1.04-2.98s-.34-2.17-1.03-2.98ZM1386.24,130.16c-.67-.8-1.53-1.21-2.53-1.21s-1.85.41-2.54,1.21c-.68.79-1.03,1.79-1.03,2.95,0,1.23.36,2.25,1.07,3.03.71.79,1.54,1.19,2.46,1.19,1.01,0,1.87-.4,2.56-1.21.69-.81,1.04-1.81,1.04-2.98s-.34-2.17-1.03-2.98ZM1386.24,130.16c-.67-.8-1.53-1.21-2.53-1.21s-1.85.41-2.54,1.21c-.68.79-1.03,1.79-1.03,2.95,0,1.23.36,2.25,1.07,3.03.71.79,1.54,1.19,2.46,1.19,1.01,0,1.87-.4,2.56-1.21.69-.81,1.04-1.81,1.04-2.98s-.34-2.17-1.03-2.98ZM1386.24,130.16c-.67-.8-1.53-1.21-2.53-1.21s-1.85.41-2.54,1.21c-.68.79-1.03,1.79-1.03,2.95,0,1.23.36,2.25,1.07,3.03.71.79,1.54,1.19,2.46,1.19,1.01,0,1.87-.4,2.56-1.21.69-.81,1.04-1.81,1.04-2.98s-.34-2.17-1.03-2.98ZM1412.8,107.98c-10.39-5.18-17.44,2.04-19.95,5.3.38.1.74.24,1.09.43.67.38,1.34,1.01,1.99,1.87.07.08.06.22-.01.3l-1.09,1.2s-.09.06-.14.06-.1-.03-.13-.08c-.8-1.24-1.75-1.84-2.89-1.84-1.02,0-1.88.41-2.57,1.22-.68.8-1.03,1.8-1.03,3s.38,2.26,1.15,3.06c.72.74,1.5,1.12,2.34,1.12.7,0,1.34-.28,1.9-.83.51-.49.81-1.06.91-1.73h-2.31c-.1,0-.18-.1-.18-.22v-1.66c0-.12.08-.21.18-.21h4.19c.1,0,.18.09.18.21v.39c0,.9-.09,1.7-.28,2.4-.18.66-.49,1.27-.92,1.84-.97,1.26-2.23,1.91-3.73,1.91s-2.73-.62-3.77-1.84c-1.04-1.23-1.57-2.72-1.57-4.43s.54-3.26,1.6-4.48,2.36-1.84,3.88-1.84c.18,0,.37.01.55.04.72-3.99,1.34-13.79-11.88-7.03-11.85,6.06-17.68-2.84-20-8.21-1.85,7.15-4.8,23.55,1.11,40.55.87,2.51,3.28,4.66,5.59,4.66h37.22c2.31,0,4.72-2.15,5.59-4.66,3.92-11.27,3.95-22.27,2.98-30.5ZM1396.38,125.19l4.71-11.71c.04-.07.1-.12.17-.12h.58c.08,0,.14.05.17.12l4.55,11.71c.03.07.02.14-.01.21-.04.06-.1.1-.16.1h-1.67c-.07,0-.14-.05-.17-.13l-3.02-8.05-3.17,8.05c-.03.08-.1.13-.17.13h-1.64c-.07,0-.13-.04-.16-.1-.03-.07-.04-.15-.01-.21ZM1379.07,113.57c0-.12.09-.21.19-.21h5.59c.1,0,.18.09.18.21v1.66c0,.13-.08.22-.18.22h-3.88v2.38h3.76c.1,0,.18.1.18.22v1.66c0,.12-.08.21-.18.21h-3.76v3.48h3.88c.1,0,.18.1.18.22v1.66c0,.12-.08.22-.18.22h-5.59c-.1,0-.19-.1-.19-.22v-11.71ZM1369.92,138.31c-.66.74-1.48,1.12-2.46,1.12-.92,0-1.69-.32-2.3-.96-.59-.64-.97-1.54-1.11-2.68-.02-.11.05-.22.14-.24l1.55-.39c.05-.02.1,0,.15.03.04.04.07.09.07.15.08.8.23,1.16.33,1.32.29.46.69.67,1.23.67.43,0,.78-.16,1.06-.49s.42-.73.42-1.24c0-.21-.03-.39-.07-.56-.05-.16-.13-.31-.23-.45-.1-.14-.24-.28-.4-.4-.18-.14-.39-.26-.63-.38l-.98-.47c-1.45-.71-2.19-1.78-2.19-3.17,0-.95.31-1.74.94-2.37.61-.63,1.38-.95,2.29-.95,1.23,0,2.2.7,2.89,2.07.03.05.03.11.02.17-.01.05-.04.1-.08.13l-1.24.85c-.09.06-.21.02-.26-.08-.21-.43-.41-.71-.59-.83-.2-.14-.45-.22-.76-.22-.38,0-.68.12-.93.37-.24.23-.36.52-.36.87,0,.47.33.86.99,1.18l1.01.47c.85.4,1.48.9,1.88,1.48.4.59.61,1.32.61,2.17,0,1.13-.33,2.08-.99,2.83ZM1371.2,125.37l-2.47-6.44-.98,6.39c-.01.1-.09.18-.18.18h-1.58c-.06,0-.11-.03-.14-.08-.04-.05-.05-.12-.04-.18l1.98-11.71c.02-.1.09-.17.18-.17h.49c.07,0,.14.05.17.13l2.97,7.78,3.08-7.79c.03-.07.1-.12.17-.12h.48c.09,0,.17.07.18.18l1.79,11.7c0,.06-.01.13-.05.18-.03.05-.08.08-.14.08h-1.56c-.1,0-.17-.08-.19-.19l-.88-6.36-2.53,6.42c-.03.08-.1.13-.17.13h-.42c-.07,0-.13-.05-.16-.13ZM1378.06,128.95c0,.12-.08.22-.19.22h-2.13v9.83c0,.12-.09.22-.19.22h-1.53c-.1,0-.18-.1-.18-.22v-9.83h-2.14c-.11,0-.19-.1-.19-.22v-1.66c0-.12.08-.21.19-.21h6.17c.11,0,.19.09.19.21v1.66ZM1387.57,137.6c-1.08,1.21-2.4,1.83-3.92,1.83-1.34,0-2.57-.55-3.64-1.62-1.18-1.2-1.78-2.78-1.78-4.72,0-1.7.54-3.18,1.62-4.4,1.07-1.22,2.38-1.83,3.88-1.83s2.78.62,3.84,1.85c1.07,1.23,1.61,2.73,1.61,4.45s-.54,3.23-1.61,4.44ZM1398.59,130.01c0,.08-.04.16-.11.19-.06.04-.14.03-.19-.02-.85-.82-1.73-1.24-2.63-1.24-.98,0-1.82.42-2.5,1.23-.67.82-1.02,1.83-1.02,3.01s.34,2.15,1.02,2.95c.68.8,1.52,1.2,2.51,1.2.51,0,.94-.09,1.29-.28.21-.1.41-.23.63-.39.22-.17.45-.37.7-.61.05-.05.13-.06.19-.03.07.04.11.11.11.2v2.13c0,.08-.04.15-.1.19-.9.59-1.85.89-2.84.89-1.49,0-2.78-.61-3.84-1.81-1.05-1.22-1.58-2.7-1.58-4.42,0-1.54.45-2.93,1.32-4.13,1.08-1.47,2.5-2.22,4.22-2.22.94,0,1.85.3,2.73.88.05.04.09.11.09.19v2.09ZM1408.32,139.09c-.03.08-.1.13-.17.13h-2.05c-.05,0-.1-.03-.14-.08l-3.52-5.03-.11.14v4.75c0,.12-.09.22-.19.22h-1.53c-.1,0-.18-.1-.18-.22v-11.71c0-.12.08-.21.18-.21h1.53c.1,0,.19.09.19.21v4.15l3.62-4.3s.08-.06.13-.06h2.04c.08,0,.15.05.17.13.03.08.02.18-.04.24l-4.45,5.16,4.49,6.25c.05.06.06.15.03.23ZM1383.71,128.95c-1,0-1.85.41-2.54,1.21-.68.79-1.03,1.79-1.03,2.95,0,1.23.36,2.25,1.07,3.03.71.79,1.54,1.19,2.46,1.19,1.01,0,1.87-.4,2.56-1.21.69-.81,1.04-1.81,1.04-2.98s-.34-2.17-1.03-2.98c-.67-.8-1.53-1.21-2.53-1.21ZM1386.24,130.16c-.67-.8-1.53-1.21-2.53-1.21s-1.85.41-2.54,1.21c-.68.79-1.03,1.79-1.03,2.95,0,1.23.36,2.25,1.07,3.03.71.79,1.54,1.19,2.46,1.19,1.01,0,1.87-.4,2.56-1.21.69-.81,1.04-1.81,1.04-2.98s-.34-2.17-1.03-2.98ZM1386.24,130.16c-.67-.8-1.53-1.21-2.53-1.21s-1.85.41-2.54,1.21c-.68.79-1.03,1.79-1.03,2.95,0,1.23.36,2.25,1.07,3.03.71.79,1.54,1.19,2.46,1.19,1.01,0,1.87-.4,2.56-1.21.69-.81,1.04-1.81,1.04-2.98s-.34-2.17-1.03-2.98Z"/>
    <path class="st7" d="M1411.37,99.7c-4.4-.41-11.46.49-17.02,8.68,0,0,2.4-20.62-16.15-11.19-11.39,5.78-16.01,3.4-17.88.69.61-2.36,1.1-3.7,1.1-3.7.77-2.56,3.28-4.65,5.59-4.65h37.22c2.31,0,4.83,2.09,5.59,4.65,0,0,.19.51.48,1.46.28.94.67,2.32,1.07,4.06Z"/>
  </g>
  <g>
    <g>
      <circle class="st7" cx="202.92" cy="155.87" r="97.44"/>
      <rect class="st3" x="68.94" y="277.72" width="267.95" height="103.85" rx="51.92" ry="51.92"/>
    </g>
    <g>
      <path class="st6" d="M458.52,191.01l-1.79-10.62c-.38-1.92-2.05-3.33-3.97-3.33l-2.17.13c-1.54,0-2.82.9-3.46,2.18l-6.01,13.18-17.28,37.75-17.41-37.75-6.01-13.18c-.64-1.28-1.92-2.18-3.46-2.18l-2.18-.13c-1.92,0-3.58,1.41-3.97,3.33l-1.79,10.62-11.01,66.55c-.51,2.3,1.41,4.48,3.71,4.48h9.73c1.92,0,3.58-1.41,3.97-3.2l6.53-39.67,13.44,30.97,5.5,11.9c.38,1.02,1.41,1.54,2.43,1.54h.9c1.02,0,2.05-.51,2.43-1.54l5.5-11.9,13.44-30.97,6.66,39.67c.26,1.79,1.92,3.2,3.84,3.2h9.73c2.3,0,4.22-2.18,3.84-4.61l-11.14-66.42Z"/>
      <path class="st9" d="M792.08,183.95h-39.16c-14.72.13-29.31.13-36.47.13h-1.28c-4.1.26-7.81,1.15-11.26,2.82-10.24,4.86-14.72,16.38-10.62,26.88,1.92,4.61,5.25,8.32,10.62,11.77,2.82,1.79,5.89,3.07,8.83,4.35,1.02.51,1.92.9,2.82,1.28,2.69,1.15,5.63,2.69,7.93,5.25,1.67,1.79,2.43,4.1,1.92,6.27-.51,2.18-2.05,3.97-4.35,4.99-1.15.51-2.43.77-3.84.77-1.66,0-3.46-.38-5.76-1.15-2.82-1.02-5.63-2.43-9.09-4.74-1.28-.77-2.18-1.15-3.07-1.15-1.79,0-2.82,1.41-3.71,2.82-.38.77-.9,1.41-1.28,2.18-.51.9-1.02,1.79-1.54,2.69-1.66,2.82-1.41,4.1,1.02,6.14,6.27,5.12,13.95,7.81,23.42,8.06,7.55-.13,13.57-2.18,18.43-6.27,7.81-6.27,9.98-17.53,5.38-26.11-2.3-4.22-5.76-7.55-11.26-10.75-2.69-1.54-5.63-2.82-8.45-3.97-1.28-.64-2.56-1.15-3.84-1.79-2.94-1.28-5.37-2.69-7.17-4.61-1.54-1.79-2.18-3.84-1.79-5.76.38-1.92,1.92-3.45,3.97-4.48,1.28-.51,2.56-.77,3.84-.77.9,0,1.66.13,2.56.26l.51.13c.64.13,1.54.26,2.3.26h38.78v59c.13,2.43,1.53,3.71,3.84,3.71h8.58c2.94,0,4.22-1.28,4.22-4.22v-58.49h14.72c2.3,0,3.71-1.28,3.71-3.45.13-2.82.13-5.63,0-8.45,0-2.05-1.28-3.33-3.46-3.58Z"/>
      <path class="st2" d="M529.55,193.96c1.54,0,2.69-1.15,2.69-2.56v-10.49c0-1.54-1.15-2.69-2.69-2.69h-49.78c-1.41,0-2.56,1.15-2.56,2.69v78.58c0,1.41,1.15,2.69,2.56,2.69h49.78c1.54,0,2.69-1.28,2.69-2.69v-10.49c0-1.41-1.15-2.56-2.69-2.56h-34.04v-18.43h27.51c1.54,0,2.69-1.15,2.69-2.56v-10.49c0-1.41-1.15-2.56-2.69-2.56h-27.51v-18.43h34.04Z"/>
      <path class="st0" d="M830.53,182.37h-.19c-10.82,0-21.06,4.17-28.84,11.76-7.59,7.59-11.77,17.65-11.77,28.65s3.98,21.25,11.77,29.03c7.59,7.59,17.64,11.76,28.65,11.76h.19c10.81,0,21.06-4.17,28.65-11.76,7.78-7.78,11.95-17.84,11.95-28.65,0-22.58-18.02-40.79-40.41-40.79ZM853.87,223.16c0,6.26-2.47,12.14-6.83,16.51-4.36,4.36-10.25,6.83-16.69,6.83h-.19c-6.26,0-12.15-2.47-16.51-6.83-4.55-4.36-7.02-10.44-7.02-16.89.19-6.26,2.65-12.14,7.02-16.51,4.36-4.55,10.25-7.02,16.7-7.02,13.09,0,23.53,10.63,23.53,23.72v.19Z"/>
      <path class="st4" d="M934.01,240.26c-.77-.77-1.92-.9-2.82-.51-4.35,4.1-9.98,6.4-16,6.4h-.64c-6.27,0-12.16-2.43-16.51-6.78-4.35-4.35-6.78-10.11-6.78-16.38v-.77c0-6.27,2.43-12.03,6.78-16.38,4.35-4.35,10.24-6.78,16.51-6.78h.64c6.02.13,11.65,2.3,16,6.4.9.38,2.05.26,2.82-.51l8.45-8.45c1.02-1.02,1.02-2.69,0-3.58-6.66-6.14-15.33-10.49-24.83-10.88-1.21-.05-3.65-.03-4.86,0-10.12.26-19.45,4.61-26.62,11.77-7.17,7.04-11.39,16.38-11.9,26.49v4.61c.51,10.11,4.74,19.45,11.9,26.49,7.17,7.17,16.51,11.26,26.62,11.77h4.86c9.6-.77,18.17-4.61,24.83-10.88,1.02-.9,1.02-2.56,0-3.58l-8.45-8.45Z"/>
      <path class="st5" d="M688,256.03l-30.46-67.06-4.61-10.11c-.64-1.41-2.18-2.43-3.84-2.43s-3.2,1.02-3.84,2.43l-4.61,10.11-30.46,67.06c-1.28,2.82.77,6.02,3.84,6.02h9.47c1.02,0,2.3-.51,2.94-1.92l22.65-51.32,22.65,51.45c.51,1.15,1.79,1.79,2.69,1.79h9.73c3.07,0,5.12-3.2,3.84-6.02Z"/>
      <path class="st8" d="M1010.55,256.77l-30.46-36.09,27.77-31.48c.64-.9,1.02-1.92,1.02-2.94,0-1.41-1.15-2.69-2.56-2.69h-13.44c-1.28,0-2.43.64-3.33,1.54l-19.45,23.29-4.22,4.99v-26.11c0-2.05-1.54-3.71-3.58-3.71h-9.73c-2.05,0-3.71,1.66-3.71,3.71v71.29c0,2.05,1.66,3.71,3.71,3.71h9.73c2.05,0,3.58-1.66,3.58-3.71v-28.54l4.22,4.86,21.5,25.72c.9,1.02,2.05,1.66,3.33,1.66h11.77c2.3,0,4.35-1.92,4.35-4.35,0-.38-.26-.9-.51-1.15Z"/>
      <path class="st1" d="M605.57,250.01c0,.77-.25,1.54-.77,2.05-8.06,7.29-18.43,11.39-29.44,11.39h-.26c-11.65,0-22.4-4.48-30.46-12.54-8.19-8.19-12.67-19.2-12.54-30.97,0-11.52,4.48-22.4,12.67-30.46,8.77-8.63,23.04-12.94,34.43-12.29,10.36.6,17.77,4.42,25.47,11.26,1.15,1.02,1.15,2.82,0,3.97l-8.96,8.96c-.89.9-2.69,1.02-3.71.13-4.48-3.97-10.24-6.4-16.64-6.4h-.13c-6.66,0-12.93,2.56-17.66,7.17-4.73,4.74-7.3,11.01-7.42,17.79,0,6.91,2.56,13.31,7.29,18.05,4.61,4.61,10.88,7.17,17.66,7.17h.13c4.86,0,9.47-1.28,13.31-3.71v-6.4s0-.13-.13-.13h-7.56c-2.17,0-4.09-1.79-4.09-4.1v-7.42c0-2.3,1.92-4.22,4.22-4.22h20.48c2.3,0,4.09,1.92,4.09,4.22v26.49Z"/>
    </g>
  </g>
</svg>